<svg xmlns="http://www.w3.org/2000/svg" width="682.667" height="682.667" preserveAspectRatio="xMidYMid meet" version="1.0" viewBox="0 0 512 512"><g fill="#000" stroke="none"><path d="M486 5100 c-219 -58 -381 -211 -458 -431 l-23 -64 -2 -2020 c-1 -1692 1 -2030 12 -2084 8 -35 33 -103 57 -150 81 -164 250 -297 430 -336 52 -11 407 -13 2058 -14 2227 -1 2052 -6 2210 71 162 80 297 254 335 428 11 54 13 400 14 2060 1 2200 5 2048 -62 2193 -78 167 -245 304 -432 354 -17 4 -939 8 -2050 9 -1936 2 -2023 1 -2089 -16z" transform="translate(0.000000,512.000000) scale(0.100000,-0.100000)"/></g></svg>