<?xml version="1.0" standalone="no"?>
<!DOCTYPE svg PUBLIC "-//W3C//DTD SVG 20010904//EN"
 "http://www.w3.org/TR/2001/REC-SVG-20010904/DTD/svg10.dtd">
<svg version="1.0" xmlns="http://www.w3.org/2000/svg"
 width="700.000000pt" height="700.000000pt" viewBox="0 0 700.000000 700.000000"
 preserveAspectRatio="xMidYMid meet">
<metadata>
Created by potrace 1.14, written by Peter Selinger 2001-2017
</metadata>
<g transform="translate(0.000000,700.000000) scale(0.100000,-0.100000)"
fill="#000000" stroke="none">
<path d="M4036 5864 c-70 -22 -149 -103 -170 -174 -32 -109 -13 -194 65 -285
338 -394 548 -1114 549 -1880 0 -415 -102 -881 -301 -1378 -57 -143 -204 -452
-284 -598 -70 -127 -56 -249 39 -344 113 -113 279 -114 390 -2 88 89 307 543
444 917 217 595 298 1114 263 1675 -34 540 -133 980 -311 1381 -118 267 -299
546 -418 644 -68 56 -170 73 -266 44z"/>
<path d="M2453 4742 c-264 -94 -286 -456 -35 -579 48 -24 70 -28 137 -28 67 0
89 4 137 28 65 32 121 90 151 156 30 65 30 187 0 252 -67 148 -241 224 -390
171z"/>
<path d="M2453 2852 c-264 -94 -286 -456 -35 -579 48 -24 70 -28 137 -28 67 0
89 4 137 28 65 32 121 90 151 156 30 65 30 187 0 252 -67 148 -241 224 -390
171z"/>
</g>
</svg>
