<?xml version="1.0" standalone="no"?>
<!DOCTYPE svg PUBLIC "-//W3C//DTD SVG 20010904//EN"
 "http://www.w3.org/TR/2001/REC-SVG-20010904/DTD/svg10.dtd">
<svg version="1.0" xmlns="http://www.w3.org/2000/svg"
 width="528.000000pt" height="528.000000pt" viewBox="0 0 528.000000 528.000000"
 preserveAspectRatio="xMidYMid meet">
<metadata>
Created by potrace 1.14, written by Peter Selinger 2001-2017
</metadata>
<g transform="translate(0.000000,528.000000) scale(0.100000,-0.100000)"
fill="#000000" stroke="none">
<path d="M1136 5224 c-112 -20 -275 -77 -378 -131 -337 -178 -569 -489 -670
-899 l-22 -89 -2 -1425 c-2 -844 1 -1452 6 -1490 23 -155 83 -335 156 -466
152 -273 436 -506 730 -599 198 -64 94 -60 1684 -60 1370 0 1449 1 1530 19
178 38 309 93 456 188 280 182 487 475 561 793 33 143 34 189 30 1623 -3 1257
-5 1425 -19 1488 -25 107 -64 218 -117 330 -183 383 -529 647 -945 719 -128
22 -2877 21 -3000 -1z m1664 -1485 c108 -13 246 -59 332 -110 164 -97 271
-259 293 -446 l7 -53 -211 0 c-194 0 -211 1 -211 18 0 31 -47 116 -81 149
-123 116 -414 120 -548 7 -95 -80 -93 -232 5 -312 58 -48 139 -77 374 -136
291 -72 410 -124 531 -233 181 -163 219 -474 84 -698 -48 -79 -95 -128 -177
-182 -162 -105 -395 -152 -662 -132 -321 24 -549 153 -654 369 -39 81 -72 203
-72 270 l0 30 210 0 c182 0 210 -2 210 -15 0 -35 41 -130 73 -169 112 -136
408 -170 592 -67 128 71 162 228 70 330 -52 57 -148 95 -402 160 -125 33 -259
71 -298 85 -167 64 -293 167 -351 290 -77 163 -63 373 35 528 152 240 483 363
851 317z"/>
</g>
</svg>
